name rise42.5664peak47.7979fall81.9185.mot
datacolumns 19
datarows 21
range 2.78166000000000 2.81499000000000
endheader
time	ground_force1_vx	ground_force1_vy	ground_force1_vz	ground_force1_px	ground_force1_py	ground_force1_pz	ground_force2_vx	ground_force2_vy	ground_force2_vz	ground_force2_px	ground_force2_py	ground_force2_pz	ground_torque1_x	ground_torque1_y	ground_torque1_z	ground_torque2_x	ground_torque2_y	ground_torque2_z	
2.78166000000000	66.38520500000000	798.48490000000004	50.74124000000000	0.26345400000000	0.00000000000000	0.08875000000000	0.00000000000000	0.00000000000000	0.00000000000000	0.00000000000000	0.00000000000000	0.00000000000000	0.00000000000000	15.17719100000000	0.00000000000000	0.00000000000000	0.00000000000000	0.00000000000000	
2.78332400000000	65.89418700000000	801.54414399999996	50.74017500000000	0.26273700000000	0.00000000000000	0.08870100000000	0.00000000000000	0.00000000000000	0.00000000000000	0.00000000000000	0.00000000000000	0.00000000000000	0.00000000000000	15.17958100000000	0.00000000000000	0.00000000000000	0.00000000000000	0.00000000000000	
2.78498700000000	65.38640700000001	804.38142000000005	50.73117500000000	0.26202400000000	0.00000000000000	0.08865300000000	0.00000000000000	0.00000000000000	0.00000000000000	0.00000000000000	0.00000000000000	0.00000000000000	0.00000000000000	15.18137100000000	0.00000000000000	0.00000000000000	0.00000000000000	0.00000000000000	
2.78665800000000	64.86266900000000	806.99542599999995	50.71462600000000	0.26131500000000	0.00000000000000	0.08860500000000	0.00000000000000	0.00000000000000	0.00000000000000	0.00000000000000	0.00000000000000	0.00000000000000	0.00000000000000	15.18263200000000	0.00000000000000	0.00000000000000	0.00000000000000	0.00000000000000	
2.78832200000000	64.32375100000000	809.38525700000002	50.69086300000000	0.26060700000000	0.00000000000000	0.08855800000000	0.00000000000000	0.00000000000000	0.00000000000000	0.00000000000000	0.00000000000000	0.00000000000000	0.00000000000000	15.18340700000000	0.00000000000000	0.00000000000000	0.00000000000000	0.00000000000000	
2.78998900000000	63.77040500000000	811.55041200000005	50.66017400000000	0.25990000000000	0.00000000000000	0.08851100000000	0.00000000000000	0.00000000000000	0.00000000000000	0.00000000000000	0.00000000000000	0.00000000000000	0.00000000000000	15.18371100000000	0.00000000000000	0.00000000000000	0.00000000000000	0.00000000000000	
2.79165500000000	63.20336200000000	813.49080000000004	50.62279600000000	0.25919100000000	0.00000000000000	0.08846500000000	0.00000000000000	0.00000000000000	0.00000000000000	0.00000000000000	0.00000000000000	0.00000000000000	0.00000000000000	15.18353300000000	0.00000000000000	0.00000000000000	0.00000000000000	0.00000000000000	
2.79334500000000	62.62332800000000	815.20674799999995	50.57892700000000	0.25847800000000	0.00000000000000	0.08842000000000	0.00000000000000	0.00000000000000	0.00000000000000	0.00000000000000	0.00000000000000	0.00000000000000	0.00000000000000	15.18283900000000	0.00000000000000	0.00000000000000	0.00000000000000	0.00000000000000	
2.79499200000000	62.03098900000000	816.69900500000006	50.52872200000000	0.25776000000000	0.00000000000000	0.08837600000000	0.00000000000000	0.00000000000000	0.00000000000000	0.00000000000000	0.00000000000000	0.00000000000000	0.00000000000000	15.18157300000000	0.00000000000000	0.00000000000000	0.00000000000000	0.00000000000000	
2.79665900000000	61.42701300000000	817.96874300000002	50.47229900000000	0.25703600000000	0.00000000000000	0.08833300000000	0.00000000000000	0.00000000000000	0.00000000000000	0.00000000000000	0.00000000000000	0.00000000000000	0.00000000000000	15.17965800000000	0.00000000000000	0.00000000000000	0.00000000000000	0.00000000000000	
2.79833300000000	60.81204900000000	819.01756000000000	50.40974300000000	0.25630200000000	0.00000000000000	0.08829100000000	0.00000000000000	0.00000000000000	0.00000000000000	0.00000000000000	0.00000000000000	0.00000000000000	0.00000000000000	15.17700000000000	0.00000000000000	0.00000000000000	0.00000000000000	0.00000000000000	
2.79998500000000	60.18673300000000	819.84747800000002	50.34110900000000	0.25555900000000	0.00000000000000	0.08825000000000	0.00000000000000	0.00000000000000	0.00000000000000	0.00000000000000	0.00000000000000	0.00000000000000	0.00000000000000	15.17349000000000	0.00000000000000	0.00000000000000	0.00000000000000	0.00000000000000	
2.80166000000000	59.55168500000000	820.46094300000004	50.26642500000000	0.25480400000000	0.00000000000000	0.08821000000000	0.00000000000000	0.00000000000000	0.00000000000000	0.00000000000000	0.00000000000000	0.00000000000000	0.00000000000000	15.16900600000000	0.00000000000000	0.00000000000000	0.00000000000000	0.00000000000000	
2.80332900000000	58.90751600000000	820.86081600000000	50.18569600000000	0.25403600000000	0.00000000000000	0.08817100000000	0.00000000000000	0.00000000000000	0.00000000000000	0.00000000000000	0.00000000000000	0.00000000000000	0.00000000000000	15.16341400000000	0.00000000000000	0.00000000000000	0.00000000000000	0.00000000000000	
2.80499000000000	58.25482500000000	821.05037100000004	50.09891100000000	0.25325400000000	0.00000000000000	0.08813400000000	0.00000000000000	0.00000000000000	0.00000000000000	0.00000000000000	0.00000000000000	0.00000000000000	0.00000000000000	15.15657300000000	0.00000000000000	0.00000000000000	0.00000000000000	0.00000000000000	
2.80665400000000	57.59420400000000	821.03328799999997	50.00604300000000	0.25245500000000	0.00000000000000	0.08809800000000	0.00000000000000	0.00000000000000	0.00000000000000	0.00000000000000	0.00000000000000	0.00000000000000	0.00000000000000	15.14833500000000	0.00000000000000	0.00000000000000	0.00000000000000	0.00000000000000	
2.80831800000000	56.92624100000000	820.81364099999996	49.90705400000000	0.25163900000000	0.00000000000000	0.08806300000000	0.00000000000000	0.00000000000000	0.00000000000000	0.00000000000000	0.00000000000000	0.00000000000000	0.00000000000000	15.13854900000000	0.00000000000000	0.00000000000000	0.00000000000000	0.00000000000000	
2.80998800000000	56.25151800000000	820.39589200000000	49.80190000000000	0.25080500000000	0.00000000000000	0.08802900000000	0.00000000000000	0.00000000000000	0.00000000000000	0.00000000000000	0.00000000000000	0.00000000000000	0.00000000000000	15.12706100000000	0.00000000000000	0.00000000000000	0.00000000000000	0.00000000000000	
2.81165200000000	55.57061300000000	819.78487199999995	49.69053400000000	0.24995100000000	0.00000000000000	0.08799700000000	0.00000000000000	0.00000000000000	0.00000000000000	0.00000000000000	0.00000000000000	0.00000000000000	0.00000000000000	15.11372000000000	0.00000000000000	0.00000000000000	0.00000000000000	0.00000000000000	
2.81333400000000	54.88410600000000	818.98577699999998	49.57290900000000	0.24907600000000	0.00000000000000	0.08796600000000	0.00000000000000	0.00000000000000	0.00000000000000	0.00000000000000	0.00000000000000	0.00000000000000	0.00000000000000	15.09837600000000	0.00000000000000	0.00000000000000	0.00000000000000	0.00000000000000	
2.81499000000000	54.19257600000000	818.00414499999999	49.44898400000000	0.24818000000000	0.00000000000000	0.08793700000000	0.00000000000000	0.00000000000000	0.00000000000000	0.00000000000000	0.00000000000000	0.00000000000000	0.00000000000000	15.08088500000000	0.00000000000000	0.00000000000000	0.00000000000000	0.00000000000000	
